<svg width="14" height="14" viewBox="0 0 14 14" fill="none" xmlns="http://www.w3.org/2000/svg">
<path fill-rule="evenodd" clip-rule="evenodd" d="M6.89244 0.00222747C6.90581 0.000636412 6.91917 0 6.93317 0C6.9424 0 6.95163 0.000636458 6.96054 0.00159109C8.76575 -0.00827344 10.5738 0.674607 11.9494 2.05055C13.3327 3.43381 14.0156 5.25366 13.9984 7.06842V7.0751L13.9981 7.07924C13.9787 8.84499 13.2958 10.6047 11.9494 11.9507C10.6034 13.2971 8.84371 13.98 7.07796 13.9994L7.07383 13.9997H7.06714C5.25239 14.0169 3.43254 13.334 2.04927 11.9507C0.666012 10.5675 -0.0168671 8.74761 0.000316331 6.93254C0.000316331 6.92808 0.000313728 6.92395 0.000631939 6.91981C0.0206792 5.15501 0.703561 3.39595 2.04927 2.05055C3.38799 0.711838 5.13592 0.0289572 6.89244 0.00222747ZM7.23738 0.642149C7.21892 0.973725 7.17692 1.30435 7.11137 1.63115L7.98231 1.8644C8.15192 1.9099 8.25279 2.0846 8.20729 2.2542C8.16178 2.42381 7.98709 2.52468 7.81749 2.47918L6.95831 2.2488C6.83485 2.66438 6.67224 3.07073 6.47018 3.46213L7.15847 3.85958C7.31057 3.9474 7.36276 4.14215 7.27493 4.29425C7.18711 4.44636 6.99236 4.49855 6.84026 4.41072L6.1526 4.01359C5.94672 4.33594 5.71188 4.64492 5.44808 4.93704L6.00177 5.49041C6.12587 5.61483 6.12587 5.81626 6.00177 5.94068C5.87767 6.06478 5.67592 6.06478 5.55182 5.94068L5.001 5.38954C4.6987 5.66924 4.37794 5.91745 4.04254 6.13383L4.47277 6.87908C4.56059 7.03119 4.50841 7.22593 4.3563 7.31376C4.2042 7.40158 4.00945 7.3494 3.92163 7.19729L3.49268 6.45427C3.10064 6.65888 2.69333 6.82435 2.27648 6.94972L2.4795 7.70738C2.525 7.87699 2.42413 8.05169 2.25452 8.09719C2.08492 8.1427 1.91022 8.04182 1.86471 7.87222L1.65946 7.10533C1.3228 7.17406 0.982315 7.21798 0.640875 7.23707C0.697835 8.78644 1.31739 10.3189 2.49922 11.5008C3.68042 12.682 5.21198 13.3015 6.76134 13.3591C6.78203 12.9865 6.8323 12.6151 6.91249 12.2486L5.99572 12.0032C5.82612 11.9577 5.72525 11.783 5.77075 11.6134C5.81626 11.4438 5.99095 11.3429 6.16056 11.3884L7.07637 11.6338C7.20493 11.2265 7.37199 10.8284 7.57691 10.4453L6.81957 10.008C6.66747 9.92022 6.61528 9.72548 6.70311 9.57337C6.79093 9.42127 6.98568 9.36908 7.13778 9.45691L7.90276 9.89858C8.10896 9.58642 8.34253 9.2873 8.60378 9.00441L7.97627 8.3769C7.85217 8.2528 7.85217 8.05105 7.97627 7.92695C8.10037 7.80285 8.30212 7.80285 8.42622 7.92695L9.05596 8.55669C9.35317 8.28748 9.6682 8.0485 9.99691 7.83976L9.50527 6.98823C9.41745 6.83612 9.46963 6.64138 9.62174 6.55355C9.77384 6.46572 9.96859 6.51791 10.0564 6.67002L10.549 7.52314C10.9321 7.32649 11.3296 7.16738 11.7359 7.04582L11.4985 6.15992C11.453 5.99032 11.5539 5.81562 11.7235 5.77043C11.8931 5.72493 12.0678 5.8258 12.1133 5.99541L12.3533 6.89149C12.6852 6.82435 13.0209 6.78139 13.3578 6.76262C13.3003 5.21325 12.6807 3.6817 11.4995 2.5005C10.3183 1.3193 8.78675 0.699746 7.23738 0.642149ZM13.3499 7.40063C13.0711 7.41781 12.7933 7.45345 12.5184 7.50755L12.6957 8.16879C12.7412 8.3384 12.6403 8.51309 12.4707 8.5586C12.3011 8.60378 12.1264 8.50323 12.0809 8.3333L11.9008 7.66092C11.5476 7.76753 11.2017 7.90563 10.8675 8.07524L11.1813 8.61874C11.2691 8.77084 11.2169 8.96559 11.0648 9.05342C10.9127 9.14124 10.718 9.08905 10.6301 8.93695L10.3154 8.39154C10.0335 8.57228 9.76302 8.77753 9.50654 9.00727L10.0173 9.518C10.1414 9.64211 10.1414 9.84385 10.0173 9.96795C9.89317 10.0921 9.69143 10.0921 9.56732 9.96795L9.05405 9.45468C8.83226 9.69684 8.63274 9.95204 8.45518 10.2174L9.0865 10.5818C9.23861 10.6696 9.29079 10.8644 9.20297 11.0165C9.11514 11.1686 8.9204 11.2207 8.76829 11.1329L8.1287 10.7638C7.95113 11.0976 7.80571 11.4441 7.69179 11.7986L8.33394 11.9708C8.50354 12.0163 8.60442 12.191 8.55891 12.3606C8.51341 12.5302 8.33871 12.6311 8.1691 12.5856L7.52791 12.4137C7.46173 12.723 7.41876 13.0365 7.39935 13.3512C8.89239 13.2579 10.3593 12.6412 11.4995 11.5008C12.64 10.3606 13.2567 8.89367 13.3499 7.40063ZM6.59937 0.650105C5.10633 0.74334 3.63937 1.36003 2.49922 2.5005C1.35939 3.64033 0.7427 5.10633 0.648828 6.59906C0.932354 6.58124 1.21492 6.54464 1.49431 6.48927L1.28239 5.69884C1.23688 5.52923 1.33775 5.35453 1.50736 5.30903C1.67697 5.26352 1.85167 5.3644 1.89717 5.534L2.11164 6.33462C2.47536 6.22357 2.83112 6.07974 3.17383 5.90249L2.79675 5.24889C2.70892 5.09678 2.76111 4.90204 2.91322 4.81421C3.06532 4.72638 3.26006 4.77857 3.34789 4.93068L3.7237 5.58174C4.01263 5.39335 4.28916 5.1792 4.55041 4.93927L3.96077 4.34962C3.83667 4.2252 3.83667 4.02378 3.96077 3.89935C4.08487 3.77525 4.28662 3.77525 4.41072 3.89935L4.9975 4.48614C5.22215 4.23507 5.42294 3.97063 5.60082 3.69506L4.89154 3.28553C4.73943 3.1977 4.68724 3.00295 4.77507 2.85085C4.86289 2.69875 5.05764 2.64656 5.20975 2.73439L5.91808 3.14329C6.09278 2.80121 6.23438 2.44672 6.34321 2.08396L5.6441 1.89685C5.47449 1.85135 5.37362 1.67665 5.41913 1.50705C5.46463 1.33744 5.63933 1.23657 5.80894 1.28207L6.49531 1.466C6.5475 1.19615 6.58219 0.923766 6.59937 0.650105Z" fill="white"/>
</svg>
