<svg width="40" height="13" viewBox="0 0 40 13" fill="none" xmlns="http://www.w3.org/2000/svg">
<rect x="0.5" y="0.5" width="39" height="12" rx="1.5" fill="#F72A69"/>
<rect x="0.5" y="0.5" width="39" height="12" rx="1.5" stroke="#F72A69"/>
<path d="M18.7296 3.682H20.2686V8.812H22.2846V10H18.7296V3.682ZM23.1087 10V3.682H24.6477V10H23.1087ZM28.58 8.452L30.155 3.682H31.784L29.543 10H27.617L25.376 3.682H27.014L28.58 8.452ZM36.3872 3.682V4.915H34.0562V6.193H36.1172V7.381H34.0562V8.767H36.3872V10H32.5172V3.682H36.3872Z" fill="white"/>
<g clip-path="url(#clip0_1225_16566)">
<path d="M11.124 9.41856C11.006 9.41816 10.8908 9.3805 10.7926 9.31027C10.6945 9.24005 10.6179 9.14039 10.5724 9.02375C10.5268 8.90711 10.5144 8.77868 10.5367 8.65453C10.5589 8.53037 10.6148 8.41599 10.6974 8.32571C11.1474 7.84119 11.4001 7.18546 11.4001 6.50193C11.4001 5.81839 11.1474 5.16267 10.6974 4.67815C10.5886 4.55628 10.5288 4.39347 10.531 4.22482C10.5332 4.05617 10.5971 3.89519 10.7091 3.77661C10.821 3.65802 10.972 3.59132 11.1294 3.59088C11.2868 3.59045 11.4381 3.65633 11.5506 3.7743C12.2228 4.49941 12.6001 5.47993 12.6001 6.50193C12.6001 7.52393 12.2228 8.50445 11.5506 9.22956C11.4947 9.28968 11.4282 9.33734 11.355 9.36977C11.2817 9.40221 11.2033 9.41879 11.124 9.41856ZM7.29779 9.23277C7.41091 9.1129 7.47496 8.9498 7.47586 8.77934C7.47676 8.60888 7.41444 8.44501 7.30259 8.32378C6.85258 7.83926 6.59995 7.18354 6.59995 6.5C6.59995 5.81646 6.85258 5.16074 7.30259 4.67622C7.35949 4.61655 7.40474 4.54535 7.4357 4.46675C7.46666 4.38815 7.48271 4.30374 7.48292 4.21843C7.48312 4.13312 7.46748 4.04862 7.43689 3.96986C7.40631 3.89109 7.3614 3.81963 7.30478 3.75965C7.24816 3.69967 7.18096 3.65237 7.1071 3.62049C7.03325 3.58862 6.95421 3.57281 6.87459 3.57399C6.79498 3.57518 6.71638 3.59333 6.64337 3.62738C6.57037 3.66144 6.50442 3.71073 6.44938 3.77237C5.77718 4.49748 5.39993 5.478 5.39993 6.5C5.39993 7.522 5.77718 8.50252 6.44938 9.22763C6.56126 9.34883 6.71349 9.41746 6.87259 9.41842C7.03169 9.41939 7.18463 9.35261 7.29779 9.23277ZM13.4592 10.7885C14.4509 9.61285 15 8.08464 15 6.5C15 4.91536 14.4509 3.38715 13.4592 2.21152C13.3525 2.0851 13.2032 2.0093 13.0442 2.0008C12.8853 1.9923 12.7297 2.0518 12.6117 2.1662C12.4937 2.2806 12.423 2.44054 12.4151 2.61083C12.4071 2.78112 12.4627 2.94781 12.5694 3.07423C13.3615 4.01345 13.7999 5.2342 13.7999 6.5C13.7999 7.7658 13.3615 8.98655 12.5694 9.92577C12.4627 10.0522 12.4071 10.2189 12.4151 10.3892C12.423 10.5595 12.4937 10.7194 12.6117 10.8338C12.7297 10.9482 12.8853 11.0077 13.0442 10.9992C13.2032 10.9907 13.3525 10.9149 13.4592 10.7885ZM5.38797 10.8335C5.50592 10.7191 5.57667 10.5593 5.58466 10.3891C5.59265 10.2189 5.53722 10.0522 5.43057 9.92577C4.63854 8.98655 4.20006 7.7658 4.20006 6.5C4.20006 5.2342 4.63854 4.01345 5.43057 3.07423C5.48344 3.01163 5.52429 2.93849 5.55077 2.85898C5.57726 2.77947 5.58887 2.69515 5.58495 2.61083C5.58102 2.52651 5.56163 2.44385 5.52788 2.36756C5.49414 2.29127 5.4467 2.22285 5.38827 2.1662C5.32985 2.10955 5.26158 2.06579 5.18737 2.03741C5.11316 2.00903 5.03445 1.99659 4.95576 2.0008C4.79682 2.0093 4.64754 2.0851 4.54076 2.21152C3.54906 3.38715 3 4.91536 3 6.5C3 8.08464 3.54906 9.61285 4.54076 10.7885C4.64757 10.9148 4.79681 10.9904 4.95567 10.9989C5.11454 11.0073 5.27003 10.9478 5.38797 10.8335ZM9 5.53572C8.822 5.53572 8.64799 5.59227 8.49998 5.69823C8.35198 5.80419 8.23662 5.95479 8.1685 6.13099C8.10038 6.30719 8.08256 6.50107 8.11729 6.68812C8.15201 6.87517 8.23773 7.04699 8.3636 7.18185C8.48947 7.31671 8.64983 7.40855 8.82442 7.44575C8.999 7.48296 9.17996 7.46386 9.34442 7.39088C9.50887 7.3179 9.64944 7.1943 9.74833 7.03573C9.84722 6.87715 9.90001 6.69072 9.90001 6.5C9.90001 6.24426 9.80519 5.99899 9.6364 5.81815C9.46762 5.63731 9.2387 5.53572 9 5.53572Z" fill="white"/>
</g>
<defs>
<clipPath id="clip0_1225_16566">
<rect width="18" height="13" fill="white"/>
</clipPath>
</defs>
</svg>
